# xmcd
# Track frame offsets:
# 150
# 11275
# 23726
# 34705
# 48150
# 57886
# 72746
# 85589
# 94432
# 106217
# 118981
# 136043
#
# Disc length: 1969 seconds
# Revision: 3
# Processed by: cddbd v1.5.2PL0 Copyright (c) Steve Scherf et al.
# Submitted via: VisiTrax 2.11.2.271 - For more info visit www.synapsa.com
#
DISCID=9607af0c
DTITLE=Slim Dusty - Essentially Australian
DYEAR=1967
DGENRE=Australian Country
TTITLE0=Campfire Yarn
TTITLE1=Old Men's Home
TTITLE2=As Good As New
TTITLE3=Since Then
TTITLE4=Answer To The Old Rusty Bell
TTITLE5=The Frog
TTITLE6=Lead Me Down To The Stockyard
TTITLE7=Shearing Shed Blues
TTITLE8=Old Laddie
TTITLE9=Scrap With a Buck Kangaroo
TTITLE10=A Picture of Home
TTITLE11=Over The Hill
EXTD=YEAR: 1967 EMI Music Australia
EXTT0=
EXTT1=
EXTT2=
EXTT3=
EXTT4=
EXTT5=
EXTT6=
EXTT7=
EXTT8=
EXTT9=
EXTT10=
EXTT11=
PLAYORDER=
